<svg id="Capa_1" enable-background="new 0 0 512 512" height="512" viewBox="0 0 512 512" width="512" xmlns="http://www.w3.org/2000/svg"><g><path d="m431.5 45c12.406 0 22.5-10.093 22.5-22.5s-10.094-22.5-22.5-22.5h-48.8c-15.97 0-29.454 11.435-32.063 27.19l-9.408 56.81h-56.229c-4.143 0-7.5 3.358-7.5 7.5s3.357 7.5 7.5 7.5h53.745l-9.605 58h-138.375c-11.657 1.318-17.449 7.843-17.377 19.574l34.087 285.593c1.349 11.307 10.955 19.833 22.341 19.833h70.517c4.143 0 7.5-3.358 7.5-7.5s-3.357-7.5-7.5-7.5h-70.517c-3.796 0-6.997-2.842-7.447-6.611l-2.791-23.389h138.845l-2.792 23.389c-.45 3.769-3.651 6.611-7.447 6.611h-12.851c-4.143 0-7.5 3.358-7.5 7.5s3.357 7.5 7.5 7.5h12.851c11.387 0 20.992-8.526 22.342-19.833l34.087-285.593c.072-11.731-5.72-18.256-17.377-19.574h-12.825l10.047-58h41.759c1.668.189 2.495 1.122 2.481 2.8l-44.383 366.606c-1.973 16.302-15.844 28.594-32.264 28.594h-126.102c-16.42 0-30.291-12.292-32.265-28.594l-44.383-366.607c-.013-1.677.814-2.611 2.481-2.799h98.218c4.143 0 7.5-3.358 7.5-7.5s-3.357-7.5-7.5-7.5h-21.063c-1.331-45.99-39.13-83-85.437-83-47.145 0-85.5 38.355-85.5 85.5 0 46.873 37.918 85.04 84.689 85.479l36.105 298.23c2.884 23.825 23.156 41.791 47.155 41.791h126.102c23.999 0 44.271-17.966 47.155-41.791l44.383-366.605c.603-4.968-.956-9.965-4.275-13.71-3.319-3.746-8.093-5.894-13.097-5.894h-39.16l6.756-39zm-292.813 44.894c-3.319 3.746-4.878 8.743-4.275 13.709l2.772 22.901c-19.343-3.042-34.184-19.821-34.184-40.004 0-22.332 18.168-40.5 40.5-40.5 21.492 0 39.119 16.829 40.415 38h-32.132c-5.004 0-9.778 2.148-13.096 5.894zm-65.687-3.394c0-38.874 31.626-70.5 70.5-70.5 38.036 0 69.113 30.281 70.437 68h-15c-1.313-29.447-25.672-53-55.437-53-30.603 0-55.5 24.897-55.5 55.5 0 29.099 22.515 53.022 51.036 55.305l1.831 15.129c-37.657-1.392-67.867-32.443-67.867-70.434zm316.718 88.296-29.505 247.204h-142.426l-29.505-247.204c-.01-1.676.817-2.608 2.482-2.796h196.471c1.665.189 2.493 1.121 2.483 2.796zm-30.53-17.796h-14.843l9.605-58h15.285zm20.204-116.634-7.559 43.634h-15.4l9.002-54.359c1.405-8.484 8.666-14.641 17.265-14.641h48.8c4.136 0 7.5 3.364 7.5 7.5s-3.364 7.5-7.5 7.5h-39.792c-6.094 0-11.273 4.358-12.316 10.366z"/><path d="m282.342 307.561c-3.51.307-6.387 3.183-6.767 6.654-.489 4.469-4.241 44.194 14.21 62.646 9.876 9.875 19.14 15.109 28.32 16.001.979.095 1.952.143 2.922.143 9.224 0 18.037-4.316 26.849-13.128 18.529-18.53 17.544-37.531-3.015-58.09-18.311-18.312-57.554-14.758-62.519-14.226-.015.001 4.965-.532 0 0zm37.214 70.371c-5.579-.542-11.848-4.362-19.163-11.678-7.207-7.207-9.695-21.467-10.273-33.528l41.422 41.422c-4.184 2.913-8.143 4.158-11.986 3.784zm22.614-14.368-41.464-41.465c12.051.57 26.313 3.059 33.548 10.294 12.416 12.415 14.926 21.222 7.916 31.171z"/><path d="m256.973 282.004c.969 0 1.943-.048 2.922-.143 9.181-.892 18.444-6.126 28.32-16.001 18.451-18.452 14.699-58.177 14.21-62.646-.375-3.434-3.2-6.266-6.64-6.641-4.469-.488-44.195-4.241-62.646 14.212-20.559 20.559-21.544 39.56-3.015 58.09 8.813 8.813 17.624 13.129 26.849 13.129zm30.907-60.277c-.578 12.062-3.066 26.321-10.272 33.528-7.315 7.316-13.584 11.136-19.163 11.678-3.847.37-7.804-.874-11.985-3.784zm-44.134-.334c7.207-7.207 21.47-9.698 33.53-10.276l-41.446 41.447c-7.01-9.949-4.5-18.756 7.916-31.171z"/><path d="m337.5 284c12.406 0 22.5-10.093 22.5-22.5s-10.094-22.5-22.5-22.5-22.5 10.093-22.5 22.5 10.094 22.5 22.5 22.5zm0-30c4.136 0 7.5 3.364 7.5 7.5s-3.364 7.5-7.5 7.5-7.5-3.364-7.5-7.5 3.364-7.5 7.5-7.5z"/><path d="m249.5 362c-12.406 0-22.5 10.093-22.5 22.5s10.094 22.5 22.5 22.5 22.5-10.093 22.5-22.5-10.094-22.5-22.5-22.5zm0 30c-4.136 0-7.5-3.364-7.5-7.5s3.364-7.5 7.5-7.5 7.5 3.364 7.5 7.5-3.364 7.5-7.5 7.5z"/></g></svg>