<svg width="512" height="512" viewBox="0 0 512 512" fill="none" xmlns="http://www.w3.org/2000/svg">
<path d="M332.763 186.973C339.426 186.973 344.848 182.044 344.848 175.986C344.848 169.928 339.426 165 332.763 165H306.552C297.974 165 290.732 170.583 289.33 178.276L284.277 206.016H254.076C251.851 206.016 250.048 207.655 250.048 209.678C250.048 211.7 251.851 213.34 254.076 213.34H282.943L277.784 241.66H203.462C197.201 242.304 194.09 245.49 194.128 251.218L212.437 390.667C213.161 396.188 218.321 400.352 224.436 400.352H262.312C264.537 400.352 266.34 398.712 266.34 396.689C266.34 394.667 264.537 393.027 262.312 393.027H224.436C222.397 393.027 220.678 391.64 220.436 389.799L218.937 378.379H293.512L292.013 389.799C291.771 391.64 290.052 393.027 288.013 393.027H281.111C278.885 393.027 277.082 394.667 277.082 396.689C277.082 398.712 278.885 400.352 281.111 400.352H288.013C294.129 400.352 299.288 396.188 300.013 390.667L318.321 251.218C318.36 245.49 315.249 242.304 308.988 241.66H302.1L307.496 213.34H329.925C330.821 213.432 331.265 213.888 331.258 214.707L307.419 393.714C306.359 401.674 298.909 407.676 290.09 407.676H222.359C213.54 407.676 206.09 401.674 205.029 393.714L181.191 214.707C181.184 213.888 181.628 213.432 182.524 213.34H235.277C237.503 213.34 239.306 211.7 239.306 209.678C239.306 207.655 237.503 206.016 235.277 206.016H223.964C223.249 183.56 202.947 165.488 178.075 165.488C152.753 165.488 132.152 184.216 132.152 207.236C132.152 230.124 152.518 248.76 177.64 248.974L197.032 394.594C198.581 406.228 209.469 415 222.359 415H290.09C302.98 415 313.868 406.228 315.417 394.594L339.256 215.588C339.58 213.162 338.742 210.722 336.96 208.894C335.177 207.064 332.613 206.016 329.925 206.016H308.892L312.521 186.973H332.763ZM175.49 208.894C173.707 210.723 172.87 213.163 173.194 215.587L174.683 226.77C164.294 225.284 156.322 217.091 156.322 207.236C156.322 196.332 166.08 187.461 178.075 187.461C189.619 187.461 199.086 195.678 199.782 206.016H182.524C179.836 206.016 177.272 207.064 175.49 208.894V208.894ZM140.209 207.236C140.209 188.255 157.196 172.812 178.075 172.812C198.505 172.812 215.196 187.598 215.908 206.016H207.851C207.146 191.637 194.062 180.137 178.075 180.137C161.638 180.137 148.266 192.293 148.266 207.236C148.266 221.445 160.359 233.126 175.678 234.241L176.661 241.628C156.435 240.948 140.209 225.787 140.209 207.236V207.236ZM310.321 250.35L294.474 371.055H217.975L202.128 250.35C202.123 249.531 202.567 249.076 203.461 248.984H308.988C309.882 249.077 310.327 249.532 310.321 250.35ZM293.923 241.66H285.951L291.11 213.34H299.32L293.923 241.66ZM304.775 184.71L300.715 206.016H292.444L297.279 179.473C298.033 175.331 301.933 172.324 306.552 172.324H332.763C334.984 172.324 336.791 173.967 336.791 175.986C336.791 178.006 334.984 179.648 332.763 179.648H311.39C308.117 179.648 305.335 181.776 304.775 184.71Z" fill="black"/>
<path d="M252.649 315.176C250.763 315.326 249.218 316.73 249.014 318.425C248.751 320.607 246.736 340.004 256.646 349.014C261.951 353.836 266.927 356.392 271.857 356.827C272.383 356.874 272.906 356.897 273.427 356.897C278.381 356.897 283.114 354.79 287.847 350.487C297.8 341.439 297.271 332.161 286.228 322.123C276.393 313.181 255.315 314.917 252.649 315.176C252.64 315.177 255.315 314.917 252.649 315.176V315.176ZM272.637 349.537C269.64 349.272 266.273 347.407 262.344 343.835C258.473 340.316 257.137 333.353 256.826 327.464L279.074 347.689C276.827 349.112 274.701 349.72 272.637 349.537V349.537ZM284.783 342.521L262.512 322.275C268.985 322.553 276.645 323.769 280.531 327.301C287.2 333.363 288.548 337.664 284.783 342.521V342.521Z" fill="black"/>
<path d="M239.023 302.697C239.543 302.697 240.066 302.674 240.592 302.627C245.523 302.192 250.499 299.636 255.803 294.814C265.713 285.805 263.698 266.408 263.435 264.226C263.234 262.549 261.717 261.166 259.869 260.983C257.469 260.745 236.131 258.912 226.221 267.922C215.179 277.961 214.65 287.239 224.602 296.287C229.335 300.59 234.068 302.697 239.023 302.697V302.697ZM255.623 273.265C255.313 279.155 253.976 286.117 250.106 289.636C246.177 293.208 242.81 295.074 239.813 295.338C237.747 295.519 235.622 294.912 233.376 293.491L255.623 273.265ZM231.918 273.102C235.789 269.583 243.45 268.367 249.928 268.084L227.667 288.322C223.901 283.464 225.25 279.164 231.918 273.102V273.102Z" fill="black"/>
<path d="M282.274 303.672C288.938 303.672 294.359 298.744 294.359 292.686C294.359 286.627 288.938 281.699 282.274 281.699C275.611 281.699 270.189 286.627 270.189 292.686C270.189 298.744 275.611 303.672 282.274 303.672ZM282.274 289.023C284.496 289.023 286.303 290.666 286.303 292.686C286.303 294.705 284.496 296.348 282.274 296.348C280.053 296.348 278.246 294.705 278.246 292.686C278.246 290.666 280.053 289.023 282.274 289.023Z" fill="black"/>
<path d="M235.009 341.758C228.345 341.758 222.924 346.686 222.924 352.744C222.924 358.802 228.345 363.73 235.009 363.73C241.672 363.73 247.094 358.802 247.094 352.744C247.094 346.686 241.672 341.758 235.009 341.758ZM235.009 356.406C232.787 356.406 230.98 354.764 230.98 352.744C230.98 350.725 232.787 349.082 235.009 349.082C237.23 349.082 239.037 350.725 239.037 352.744C239.037 354.764 237.23 356.406 235.009 356.406Z" fill="black"/>
</svg>
