<svg width="493" height="501" viewBox="0 0 493 501" fill="none" xmlns="http://www.w3.org/2000/svg">
<path d="M493 0H0V501H493V0Z" fill="white"/>
<path d="M192.406 399.449L189.763 408.183C205.981 413.716 223.485 413.22 239.402 406.776L296.223 383.698L293.15 375.106L236.325 398.183C222.244 403.896 206.757 404.34 192.406 399.449Z" fill="white"/>
<path d="M172.165 400.713L175.474 392.226L184.109 396.042L180.8 404.529L172.165 400.713Z" fill="white"/>
<path d="M100.441 370.661V379.855H147.921C150.305 379.855 152.238 377.797 152.238 375.258V373.503L184.465 387.752C202.032 395.395 221.673 395.627 239.393 388.401L306.074 361.326C310.023 359.727 313.202 356.5 314.888 352.374C316.637 348.192 316.728 343.435 315.143 339.18C313.596 334.937 310.495 331.548 306.552 329.792C302.689 328.05 298.324 328.057 294.467 329.817L294.168 329.949L308.384 296.243C313.606 283.967 316.293 270.638 316.26 257.159C316.241 248.207 314.281 239.381 310.537 231.37C304.573 218.629 293.656 209.325 280.679 205.917C267.703 202.51 253.976 205.347 243.136 213.675C243.49 208.301 244.397 202.983 245.838 197.818C245.876 197.731 245.891 197.639 245.925 197.547C249.242 186.02 255.171 175.538 263.19 167.028L257.095 160.541C251.691 166.287 247.105 172.844 243.486 180.005C237.212 161.998 221.095 150.034 203.058 150C200.675 150 198.742 152.058 198.742 154.597C198.778 177.699 214.895 197.19 236.407 200.151C235.401 204.725 234.761 209.383 234.491 214.074C223.671 205.522 209.851 202.512 196.748 205.854C183.643 209.197 172.603 218.548 166.595 231.392C162.851 239.399 160.894 248.216 160.87 257.159C160.841 270.636 163.532 283.96 168.761 296.234L175.274 311.698C171.265 311.175 167.229 310.91 163.189 310.903H152.238C152.238 308.365 150.305 306.306 147.921 306.306H100.441V315.5H143.605V370.661H100.441ZM207.687 159.52C223.072 161.769 235.168 174.66 237.271 191.048C221.883 188.799 209.788 175.908 207.687 159.52ZM176.629 292.45C171.91 281.366 169.48 269.33 169.503 257.159C169.526 249.644 171.172 242.234 174.317 235.507C180.543 222.119 193.374 213.668 207.402 213.715C215.803 213.731 223.953 216.779 230.52 222.364L235.871 226.914C237.448 228.254 239.684 228.254 241.259 226.914L246.616 222.364C255.339 214.932 266.748 212.097 277.659 214.649C288.57 217.201 297.812 224.867 302.811 235.507C305.956 242.234 307.604 249.644 307.627 257.159C307.65 269.336 305.22 281.375 300.497 292.465L285.653 327.669C284.167 331.101 282.017 334.16 279.343 336.643L266.461 342.468C266.543 341.909 266.596 341.346 266.621 340.78C266.621 331.893 259.858 324.69 251.514 324.69H218.033C214.646 324.686 211.307 323.846 208.277 322.234C201.05 318.403 193.418 315.509 185.544 313.61L176.629 292.45ZM163.18 320.093C177.491 320.111 191.606 323.66 204.413 330.459C208.643 332.708 213.305 333.88 218.033 333.884H251.514C254.796 333.907 257.544 336.542 257.906 340.017C258.271 343.489 256.136 346.704 252.939 347.496C252.374 347.552 251.822 347.676 251.246 347.676H199.718V356.87H251.246H251.514C251.601 356.87 251.683 356.843 251.773 356.843C255.198 356.785 258.583 356.021 261.736 354.594L297.82 338.279C299.542 337.498 301.49 337.498 303.211 338.279C304.999 339.083 306.402 340.63 307.096 342.56C307.833 344.531 307.793 346.735 306.984 348.672C306.219 350.547 304.78 352.015 302.988 352.746L236.308 379.824C220.638 386.215 203.273 386.015 187.736 379.267L152.238 363.55V320.093H163.18Z" fill="#202020"/>
<path d="M185.544 200.182L182.09 191.756C168.649 198.063 157.705 209.179 151.15 223.177C146.204 233.74 143.622 245.379 143.605 257.181C143.605 261.482 143.83 265.781 144.284 270.055L152.859 269.024C152.444 265.092 152.235 261.139 152.238 257.181C152.252 246.811 154.52 236.582 158.864 227.3C164.51 215.221 173.95 205.628 185.544 200.182Z" fill="white"/>
<path d="M333.257 265.253C333.437 262.584 333.525 259.893 333.525 257.181C333.512 245.374 330.935 233.731 325.988 223.163C324.051 219.033 321.723 215.123 319.04 211.495L312.264 217.197C314.582 220.328 316.593 223.704 318.266 227.273C322.614 236.564 324.882 246.802 324.892 257.181C324.892 259.666 324.81 262.14 324.646 264.602L333.257 265.253Z" fill="white"/>
</svg>
