<svg width="512" height="512" viewBox="0 0 512 512" fill="none" xmlns="http://www.w3.org/2000/svg">
<path d="M358.51 252.673H302.443L263.03 179.414C261.617 176.788 259.228 174.849 256.302 173.954C253.375 173.06 250.264 173.318 247.54 174.68C246.592 175.154 245.745 175.739 245 176.409C244.255 175.74 243.407 175.154 242.46 174.68C239.736 173.318 236.624 173.061 233.698 173.954C230.772 174.848 228.383 176.788 226.97 179.414L185.426 256.634C184.013 259.26 183.745 262.26 184.673 265.081C184.989 266.043 185.441 266.94 185.996 267.766H131.49C129.193 267.766 127.324 265.964 127.324 263.75C127.324 261.535 129.193 259.733 131.49 259.733H173.241C175.263 259.733 176.903 258.153 176.903 256.203C176.903 254.254 175.263 252.673 173.241 252.673H131.49C125.155 252.673 120 257.642 120 263.75C120 268.815 123.546 273.093 128.37 274.408L149.58 383.455C150.945 390.475 157.312 395.569 164.721 395.569H325.28C332.688 395.569 339.055 390.475 340.42 383.455L361.631 274.407C366.454 273.093 370 268.815 370 263.75C370 257.642 364.845 252.673 358.51 252.673ZM250.912 180.949C251.899 180.455 253.028 180.361 254.088 180.685C255.149 181.009 256.016 181.713 256.528 182.665L298.072 259.885C298.584 260.837 298.681 261.925 298.345 262.947C298.009 263.97 297.279 264.805 296.291 265.299C295.304 265.793 294.175 265.887 293.114 265.563C292.053 265.239 291.187 264.536 290.675 263.583L249.131 186.363C248.074 184.397 248.873 181.968 250.912 180.949ZM299.677 274.827L296.212 309.272H248.662V274.827H299.677ZM245 194.019L284.174 266.833C284.347 267.155 284.535 267.466 284.737 267.766H205.263C205.465 267.466 205.653 267.155 205.826 266.834L209.646 259.734H265.386C267.408 259.734 269.048 258.154 269.048 256.204C269.048 254.254 267.408 252.673 265.386 252.673H213.444L245 194.019ZM191.928 259.885L233.472 182.664C233.984 181.712 234.851 181.009 235.912 180.685C236.327 180.558 236.752 180.495 237.175 180.495C237.834 180.495 238.487 180.648 239.088 180.948C241.127 181.968 241.926 184.397 240.869 186.362L199.324 263.582C198.812 264.535 197.946 265.238 196.885 265.562C195.825 265.886 194.696 265.792 193.708 265.298C192.72 264.804 191.991 263.969 191.655 262.947C191.318 261.925 191.416 260.837 191.928 259.885ZM135.903 274.827H182.964L186.43 309.272H142.603L135.903 274.827ZM143.976 316.332H187.14L190.605 350.776H150.675L143.976 316.332ZM164.72 388.509C160.834 388.509 157.495 385.837 156.779 382.155L152.049 357.837H191.315L194.401 388.509H164.72ZM241.338 388.509H201.759L198.674 357.837H241.338V388.509ZM241.338 350.776H197.963L194.498 316.332H241.338V350.776ZM241.338 309.272H193.788L190.323 274.827H241.338V309.272ZM288.241 388.509H248.662V357.837H291.326L288.241 388.509ZM292.037 350.777H248.662V316.332H295.502L292.037 350.777ZM333.221 382.155C332.505 385.837 329.165 388.509 325.279 388.509H295.599L298.685 357.837H337.951L333.221 382.155ZM339.325 350.777H299.395L302.86 316.332H346.024L339.325 350.777ZM347.397 309.271H303.571L307.036 274.826H354.097L347.397 309.271ZM358.51 267.766H358.45C358.448 267.766 358.446 267.766 358.443 267.766H304.004C304.559 266.941 305.01 266.044 305.327 265.081C305.905 263.324 306.019 261.497 305.681 259.734H358.51C360.807 259.734 362.676 261.536 362.676 263.75C362.676 265.964 360.807 267.766 358.51 267.766Z" fill="#202020"/>
</svg>
