<svg width="512" height="512" viewBox="0 0 512 512" fill="none" xmlns="http://www.w3.org/2000/svg">
<path d="M364.696 211.469C364.602 211.2 364.479 210.942 364.335 210.701C364.269 210.59 364.205 210.482 364.131 210.377C363.947 210.126 363.737 209.895 363.503 209.693C363.442 209.635 363.388 209.569 363.322 209.518L363.282 209.477C362.98 209.253 362.652 209.072 362.305 208.94L362.237 208.906L243.337 165.239C242.47 164.922 241.53 164.922 240.663 165.239L121.763 208.906L121.695 208.944C121.346 209.074 121.018 209.253 120.718 209.477L120.678 209.518C120.612 209.569 120.558 209.635 120.497 209.693C120.263 209.895 120.053 210.126 119.869 210.377C119.795 210.482 119.731 210.59 119.665 210.701C119.521 210.942 119.398 211.2 119.304 211.469C119.256 211.582 119.216 211.699 119.18 211.818C119.066 212.211 119.006 212.62 119 213.032V378.965C119 380.828 120.111 382.485 121.763 383.093L240.663 426.76H240.713C241.546 427.067 242.454 427.067 243.287 426.76H243.337L362.237 383.093C363.889 382.485 365 380.828 365 378.965V213.032C364.994 212.62 364.934 212.211 364.82 211.818C364.784 211.699 364.744 211.582 364.696 211.469V211.469ZM242 252.078L135.678 213.032L182.55 195.819L288.872 234.865L242 252.078ZM242 173.985L348.322 213.032L301.45 230.245L195.124 191.198L242 173.985ZM127.2 219.145L237.9 259.798V416.519L127.2 375.852V219.145ZM305.55 394.685V358.59L318.703 353.761C336.588 347.183 348.592 329.252 348.6 309.098C348.6 307.687 347.959 306.363 346.88 305.544C345.801 304.725 344.416 304.512 343.163 304.973L327.247 310.819C314.685 315.441 304.733 325.825 300.135 339.106C298.721 337.234 297.078 335.578 295.246 334.177C288.8 329.22 280.482 327.938 272.98 330.744L257.063 336.61C255.411 337.215 254.3 338.874 254.3 340.735C254.314 355.151 265.247 366.852 278.782 366.935C281.535 366.931 284.267 366.436 286.866 365.473L297.35 361.626V397.711L246.1 416.519V259.811L356.8 219.145V375.852L305.55 394.685ZM306.038 349.185C308.213 335.245 317.38 323.693 329.92 319.081L339.912 315.41C337.735 329.347 328.57 340.9 316.03 345.514L306.038 349.185ZM297.108 352.46L284.197 357.202C279.669 358.863 274.686 358.33 270.56 355.744C266.432 353.157 263.575 348.776 262.742 343.752L275.653 339.01C280.181 337.349 285.164 337.882 289.29 340.469C293.418 343.055 296.275 347.437 297.108 352.46Z" fill="#202020"/>
<path d="M197.112 255.472L175.715 247.611C169.539 245.387 162.837 248.89 160.711 255.455C158.587 262.018 161.836 269.177 167.988 271.48L189.385 279.339C195.561 281.565 202.263 278.06 204.389 271.497C206.513 264.932 203.264 257.772 197.112 255.472ZM195.366 270.572C194.41 271.312 193.172 271.504 192.057 271.081L170.664 263.222C169.193 262.681 168.204 261.205 168.204 259.546C168.198 258.286 168.767 257.101 169.729 256.37C170.692 255.638 171.93 255.451 173.047 255.868L194.444 263.73C195.917 264.271 196.904 265.747 196.904 267.406C196.91 268.666 196.335 269.847 195.366 270.572Z" fill="#202020"/>
</svg>
