<svg id="hand" enable-background="new 0 0 495.99 495.99"  viewBox="0 0 495.99 495.99" xmlns="http://www.w3.org/2000/svg"><path d="m177.801 289.54c16.08 0 29.16-13.08 29.16-29.16v-90.84c0-16.08-13.08-29.16-29.16-29.16s-29.17 13.08-29.17 29.16v90.84c0 16.08 13.09 29.16 29.17 29.16z"/><path d="m107.601 297.801c13.81 0 25.03-11.23 25.03-25.04v-74.32c0-13.8-11.22-25.03-25.03-25.03-13.8 0-25.03 11.23-25.03 25.03v74.32c0 13.81 11.23 25.04 25.03 25.04z"/><path d="m194.811 127.71c16.5 6.73 28.15 22.95 28.15 41.83v30.67c5.414-2.013 4.418-1.51 51.25-1.51l-47.45-177.09c-4.17-15.53-20.19-24.78-35.71-20.61-15.512 4.146-24.815 20.054-20.63 35.71z"/><path d="m409.501 29.76c-12.9-22.293-46.671-18.121-53.43 7.05l-43.38 161.89c20.119 0 36.031 6.571 48.73 19.27l5.13 5.13 45.86-171.2c2.02-7.53.98-15.39-2.91-22.14z"/><path d="m370.211 249.39c-6.911-6.911-2.854-2.856-20.11-20.1-9.4-9.41-21.91-14.59-35.21-14.59h-83.42c-4.622 0-8.51 3.707-8.51 8.52 0 27.46 22.34 49.8 49.8 49.8 44.566 0 42.486-.394 45.01 1.05 4.458 2.74 12.54 16.833 12.54 32.82 0 4.01-2.97 7.4-6.94 7.93-57.25 7.63-100.41 57-100.41 114.85 0 4.42-3.58 8-8 8s-8-3.58-8-8c0-63.26 45.36-117.62 106.72-129.47-.715-3.768-2.096-7.605-4.19-11.18h-36.73c-20.05 0-38.04-9.02-50.12-23.21-4.583 37.954-51.994 53.644-78.2 25-11.438 23.304-41.348 30.294-61.87 14.45v62.47c0 70.72 57.54 128.26 128.26 128.26h57.81c70.72 0 128.25-57.54 128.25-128.26v-53.92c0-24.949-10.16-47.9-26.68-64.42z"/>
</svg>