<?xml version="1.0" encoding="iso-8859-1"?>
<!-- Generator: Adobe Illustrator 19.0.0, SVG Export Plug-In . SVG Version: 6.00 Build 0)  -->
<svg version="1.1" id="Layer_1" xmlns="http://www.w3.org/2000/svg" xmlns:xlink="http://www.w3.org/1999/xlink" x="0px" y="0px"
	 viewBox="0 0 512 512" style="enable-background:new 0 0 512 512;" xml:space="preserve">
<g>
	<g>
		<path d="M381.65,197.878h-34.787c-3.68-19.062-20.482-33.506-40.602-33.506h-0.523v-17.729l1.176-0.098
			c4.321-0.36,7.534-4.156,7.174-8.478c-0.356-4.278-4.078-7.457-8.349-7.178v-9.375l1.176-0.098
			c4.321-0.36,7.534-4.156,7.174-8.478c-0.36-4.321-4.153-7.531-8.478-7.173l-1.122,0.093c-3.25-9.79-12.487-16.874-23.355-16.874
			h-10.54l9.266-42.62l80.089,20.022c10.928,2.729,22.029-3.935,24.759-14.856c2.728-10.909-3.918-22.004-14.817-24.751
			L269.329,0.591c-5.282-1.32-11.005-0.404-15.7,2.511c-4.693,2.916-8.048,7.639-9.205,12.965l-15.809,72.916h-98.265
			c-13.568,0-24.606,11.038-24.606,24.606v8.829l-1.176,0.098c-4.321,0.36-7.534,4.156-7.173,8.478
			c0.341,4.1,3.775,7.201,7.817,7.201c0.176,0,0.354-0.01,0.532-0.022v9.374l-1.176,0.098c-4.321,0.36-7.534,4.156-7.174,8.478
			c0.341,4.1,3.775,7.201,7.817,7.201c0.176,0,0.354-0.01,0.532-0.022v1.069h-0.524c-22.805,0-41.359,18.554-41.359,41.359v264.91
			c0,22.805,18.554,41.359,41.359,41.359H306.26c22.805,0,41.359-18.554,41.359-41.359v-5.759h34.03
			c36.662,0,66.489-29.827,66.489-66.489V264.368C448.139,227.705,418.312,197.878,381.65,197.878z M281.131,104.689
			c2.444,0,4.661,0.992,6.27,2.591l-21.172,1.764l0.947-4.356H281.131z M290.031,122.822v9.369l-29.365,2.447l2.074-9.542
			L290.031,122.822z M259.774,19.398c0.53-2.44,3.223-4.199,5.672-3.588l100.519,26.177c0.024,0.006,0.049,0.013,0.074,0.019
			c2.52,0.63,4.058,3.194,3.428,5.714c-0.63,2.52-3.194,4.054-5.715,3.428l-87.945-21.986c-4.241-1.062-8.652,1.685-9.578,5.951
			l-11.711,53.872h-9.831L259.774,19.398z M241.282,104.69h9.822l-1.244,5.72l-9.999,0.832L241.282,104.69z M236.382,127.292
			l9.989-0.832l-2.074,9.542l-9.984,0.832L236.382,127.292z M230.834,152.885l9.973-0.831l-20.381,93.756
			c-2.855-1.239-5.805-2.596-8.854-4.08L230.834,152.885z M217.032,261.421l-31.815,146.35c-0.688,3.158-4.503,4.723-7.209,2.93
			c-1.581-1.048-2.403-3.076-1.999-4.936l32.145-148.271C211.193,258.915,214.152,260.223,217.032,261.421z M130.352,104.689h94.86
			l-1.716,7.917l-102.042,8.503v-7.52h-0.001C121.452,108.681,125.445,104.689,130.352,104.689z M121.452,136.871l98.563-8.213
			l-2.069,9.542l-96.494,8.042V136.871z M339.767,290.02c-4.337,0-7.853,3.516-7.853,7.853v172.768
			c0,14.145-11.508,25.653-25.653,25.653H105.223c-14.145,0-25.653-11.508-25.653-25.653v-264.91
			c0-14.145,11.508-25.653,25.653-25.653h8.377c4.337,0,7.853-3.516,7.853-7.853v-10.226l93.015-7.751l-17.506,80.747
			c-63.194-25.932-95.85,5.625-97.291,7.066c-1.473,1.472-2.3,3.47-2.3,5.553v108.896c0,4.337,3.516,7.853,7.853,7.853
			s7.853-3.516,7.853-7.853V251.275c7.694-5.726,34.094-20.68,80.5-0.665L160.66,402.433c-1.774,8.159,1.708,16.742,8.665,21.356
			c3.382,2.244,7.321,3.354,11.256,3.354c9.517-0.001,17.957-6.719,19.982-16.035l31.35-144.21
			c33.273,10.563,54.228,5.346,66.493-1.767v191.899c0,4.908-3.992,8.9-8.9,8.9H121.975c-4.908,0-8.9-3.992-8.9-8.9v-67.013
			c0-4.337-3.516-7.853-7.853-7.853s-7.853,3.516-7.853,7.853v67.013c0,13.568,11.038,24.606,24.606,24.606h167.532
			c13.568,0,24.606-11.038,24.606-24.606V247.614c0-3.501-2.345-6.761-5.754-7.686c-3.451-0.936-7.192,0.585-8.898,3.752
			c-1.058,1.68-16.067,23.717-64.202,7.826l21.917-100.818l32.855-2.738v24.273c0,4.337,3.516,7.853,7.853,7.853h8.377
			c14.145,0,25.653,11.508,25.653,25.653v58.636c0,4.337,3.516,7.853,7.853,7.853s7.853-3.516,7.853-7.853V247.09h34.03
			c9.526,0,17.277,7.75,17.277,17.277v134.025c0,9.526-7.75,17.277-17.277,17.277h-34.03V297.873
			C347.62,293.536,344.104,290.02,339.767,290.02z M432.433,398.393c0,28.002-22.781,50.783-50.783,50.783h-34.03v-17.8h34.03
			c18.187,0,32.983-14.796,32.983-32.983V264.368c0-18.187-14.796-32.983-32.983-32.983h-34.03v-17.8h34.03
			c28.002,0,50.783,22.781,50.783,50.783V398.393z"/>
	</g>
</g>
<g>
	<g>
		<path d="M264.378,281.644c-13.568,0-24.606,11.038-24.606,24.606s11.038,24.606,24.606,24.606
			c13.568,0,24.606-11.038,24.606-24.606S277.946,281.644,264.378,281.644z M264.378,315.151c-4.908,0-8.9-3.992-8.9-8.9
			s3.992-8.9,8.9-8.9c4.908,0,8.9,3.992,8.9,8.9S269.285,315.151,264.378,315.151z"/>
	</g>
</g>
<g>
	<g>
		<path d="M147.106,298.397c-13.568,0-24.606,11.038-24.606,24.606s11.038,24.606,24.606,24.606s24.606-11.038,24.606-24.606
			S160.674,298.397,147.106,298.397z M147.106,331.904c-4.908,0-8.9-3.992-8.9-8.9s3.992-8.9,8.9-8.9c4.908,0,8.9,3.992,8.9,8.9
			S152.013,331.904,147.106,331.904z"/>
	</g>
</g>
<g>
	<g>
		<path d="M239.248,398.916c-13.568,0-24.606,11.038-24.606,24.606s11.038,24.606,24.606,24.606
			c13.568,0,24.606-11.038,24.606-24.606S252.816,398.916,239.248,398.916z M239.248,432.423c-4.908,0-8.9-3.992-8.9-8.9
			s3.992-8.9,8.9-8.9c4.908,0,8.9,3.992,8.9,8.9S244.156,432.423,239.248,432.423z"/>
	</g>
</g>
<g>
</g>
<g>
</g>
<g>
</g>
<g>
</g>
<g>
</g>
<g>
</g>
<g>
</g>
<g>
</g>
<g>
</g>
<g>
</g>
<g>
</g>
<g>
</g>
<g>
</g>
<g>
</g>
<g>
</g>
</svg>
